<svg xmlns="http://www.w3.org/2000/svg" xmlns:xlink="http://www.w3.org/1999/xlink" xml:space="preserve" version="1.1" style="shape-rendering:geometricPrecision;text-rendering:geometricPrecision;image-rendering:optimizeQuality;" viewBox="0 0 846.66 1058.325" x="0px" y="0px" fill-rule="evenodd" clip-rule="evenodd"><defs><style type="text/css">
   
    .fil0 {fill:black;fill-rule:nonzero}
   
  </style></defs><g><path class="fil0" d="M440.06 72.8c6.93,1.13 13.61,2.96 20.02,5.39l16.99 -29.4c10.99,-19.05 39.95,-2.33 28.95,16.71l-16.99 29.45c5.35,4.37 10.27,9.29 14.64,14.64l29.44 -16.99c19.05,-11 35.77,17.96 16.72,28.95l-29.4 16.99c2.43,6.39 4.26,13.09 5.38,20.01l33.94 0.01c21.99,0 21.99,33.44 0,33.44l-33.94 0.01c-1.12,6.93 -2.94,13.63 -5.36,20.03l29.38 16.97c19.05,10.99 2.33,39.95 -16.72,28.95l-29.38 -16.96c-4.41,5.36 -9.31,10.26 -14.67,14.67l16.96 29.39c11,19.04 -17.96,35.76 -28.95,16.71l-16.98 -29.37c-6.39,2.42 -13.09,4.23 -20.02,5.36l-0.01 33.93c0,21.99 -33.44,21.99 -33.44,0l-0.01 -33.92c-6.93,-1.13 -13.63,-2.95 -20.03,-5.37l-16.97 29.37c-10.99,19.05 -39.95,2.33 -28.95,-16.71l16.98 -29.43c-5.35,-4.39 -10.26,-9.29 -14.64,-14.65l-29.44 16.98c-19.04,11 -35.76,-17.96 -16.71,-28.95l29.38 -16.97c-2.42,-6.4 -4.24,-13.11 -5.37,-20.03l-33.93 -0.01c-21.99,0 -21.99,-33.44 0,-33.44l33.92 -0.01c1.13,-6.94 2.94,-13.63 5.36,-20.04l-29.36 -16.96c-19.05,-10.99 -2.33,-39.95 16.71,-28.95l29.39 16.96c4.42,-5.38 9.29,-10.24 14.67,-14.66l-16.96 -29.4c-11,-19.04 17.96,-35.76 28.95,-16.71l16.96 29.36c6.41,-2.41 13.12,-4.23 20.05,-5.36l0 -33.92c0,-21.99 33.44,-21.99 33.44,0 0,11.31 0,22.62 0,33.93zm-43.48 718.06l53.52 0 0 -57.32 -53.52 0 0 57.32zm70.23 33.43l-86.95 0c-9.22,0 -16.71,-7.49 -16.71,-16.71l0 -74.04 -198.44 0c-9.22,0 -16.71,-7.49 -16.71,-16.72l0 -56.23c-0.56,-2.97 -0.37,-5.94 0.63,-8.79l94.19 -297.94c2.25,-7.12 8.83,-11.69 15.93,-11.69 109.72,0 219.45,0 329.17,0 7.67,0 14.14,5.17 16.11,12.21l94.18 297.94c0.87,2.76 0.99,5.59 0.46,8.26l0 56.24c0,9.23 -7.49,16.72 -16.72,16.72l-198.42 0 0 74.04c0,9.22 -7.49,16.71 -16.72,16.71zm-279.52 -183.9l94.77 0 41.08 -264.78 -52.15 0 -83.7 264.78zm128.48 0l90.85 0 0 -264.78 -49.77 0 -41.08 264.78zm124.29 0l90.85 0 -41.08 -264.78 -49.77 0 0 264.78zm124.56 0l94.76 0 -83.69 -264.78 -52.15 0 41.08 264.78zm-383.19 33.67l0 26.05c161.27,0 322.54,0 483.81,0l0 -26.05c-161.27,0 -322.54,0 -483.81,0zm241.91 -569.13c-38.42,-1.22 -70.39,32.71 -70.39,70.35 0,38.93 31.46,70.39 70.39,70.39 38.85,0 70.39,-31.54 70.39,-70.39 0,-37.7 -31.91,-71.58 -70.39,-70.35z"/></g><text x="0" y="861.66" fill="#000000" font-size="5px" font-weight="bold" font-family="'Helvetica Neue', Helvetica, Arial-Unicode, Arial, Sans-serif">Created by emka angelina</text><text x="0" y="866.66" fill="#000000" font-size="5px" font-weight="bold" font-family="'Helvetica Neue', Helvetica, Arial-Unicode, Arial, Sans-serif">from the Noun Project</text></svg>