<svg xmlns="http://www.w3.org/2000/svg" viewBox="0 0 100 125" x="0px" y="0px"><title>Beverage</title><g><path d="M62.16,90.63H31.74A10.27,10.27,0,0,1,27,89.45a9.59,9.59,0,0,1-3.58-3.25,17.31,17.31,0,0,1-2.77-8.34L17.24,22.63a1.11,1.11,0,0,1,1.11-1.18h57.2a1.11,1.11,0,0,1,.81.34,1.16,1.16,0,0,1,.31.83l-3,54.57a17.31,17.31,0,0,1-3,8.84l-.26.37A9.91,9.91,0,0,1,62.16,90.63Zm-42.62-67,.31,5.15,3,48.9A15,15,0,0,0,25.26,85,7.43,7.43,0,0,0,28,87.48a8,8,0,0,0,3.73.92H62.16a7.7,7.7,0,0,0,6.39-3.26l.25-.37a15.09,15.09,0,0,0,2.65-7.7l2.93-53.4Z"/><path d="M66.9,94.86h-40a1.11,1.11,0,0,1-1-.56,1.08,1.08,0,0,1,0-1.11L28.33,89a1.12,1.12,0,0,1,1-.55H64.62a1.1,1.1,0,0,1,1,.58l2.28,4.14a1.1,1.1,0,0,1-1,1.65ZM28.81,92.63H65L64,90.72h-34Z"/><path d="M76.27,23.67H17.36l.45-1.44a12.45,12.45,0,0,1,6.65-7.59,11.49,11.49,0,0,1,11.26-2.16A14.36,14.36,0,0,1,46.88,7.14a14.22,14.22,0,0,1,10.88,5,11.71,11.71,0,0,1,4.32-.81,11.9,11.9,0,0,1,11.29,8,11.25,11.25,0,0,1,2,2.66ZM20.51,21.45H72.27q-.3-.35-.63-.66l-.21-.19-.09-.28a9.67,9.67,0,0,0-9.26-6.76,9.57,9.57,0,0,0-4.18.94l-.81.39-.55-.72A12.11,12.11,0,0,0,37,14.48l-.53.74-.83-.37a9.15,9.15,0,0,0-9.82,1.57l-.13.11-.16.08A10.23,10.23,0,0,0,20.51,21.45Z"/><path d="M35,14.25a4.56,4.56,0,1,1,4.55-4.56A4.56,4.56,0,0,1,35,14.25Zm0-6.88a2.33,2.33,0,1,0,2.33,2.32A2.32,2.32,0,0,0,35,7.37Z"/><path d="M33.58,90.63a1.12,1.12,0,0,1-1.11-1.12V48.41a1.12,1.12,0,0,1,2.23,0v41.1A1.12,1.12,0,0,1,33.58,90.63Z"/><path d="M46.63,90.63a1.12,1.12,0,0,1-1.11-1.12V43.29a1.12,1.12,0,1,1,2.23,0V89.51A1.12,1.12,0,0,1,46.63,90.63Z"/><path d="M60.33,90.63a1.12,1.12,0,0,1-1.12-1.12V48.41a1.12,1.12,0,0,1,2.23,0v41.1A1.12,1.12,0,0,1,60.33,90.63Z"/><path d="M74.4,23.67a1.12,1.12,0,0,1-1.12-1.11V8.07A1.12,1.12,0,0,1,74.4,7h7.25a1.12,1.12,0,0,1,0,2.23H75.51V22.56A1.11,1.11,0,0,1,74.4,23.67Z"/><path d="M52.23,28.49H18.65a1.12,1.12,0,0,1,0-2.23H52.23a1.12,1.12,0,0,1,0,2.23Z"/><path d="M59.36,28.49H56.24a1.12,1.12,0,1,1,0-2.23h3.12a1.12,1.12,0,0,1,0,2.23Z"/></g><text x="0" y="115" fill="#000000" font-size="5px" font-weight="bold" font-family="'Helvetica Neue', Helvetica, Arial-Unicode, Arial, Sans-serif">Created by Widyatmoko</text><text x="0" y="120" fill="#000000" font-size="5px" font-weight="bold" font-family="'Helvetica Neue', Helvetica, Arial-Unicode, Arial, Sans-serif">from the Noun Project</text></svg>