<svg xmlns="http://www.w3.org/2000/svg" xmlns:xlink="http://www.w3.org/1999/xlink" version="1.1" x="0px" y="0px" viewBox="0 0 100 125" style="enable-background:new 0 0 100 100;" xml:space="preserve"><path d="M78.4,28.4H54.1v-5.7c0-2.2-1.8-4-4-4h-5.1c-2.2,0-4,1.8-4,4v5.9c-2,0.6-3.5,2.4-3.5,4.6v13c-0.1,0-0.1,0-0.2,0h-3.8V40  c0-0.7-0.5-1.2-1.2-1.2S31,39.3,31,40v1.8H19.2V40c0-0.7-0.5-1.2-1.2-1.2c-0.7,0-1.2,0.5-1.2,1.2v19.8c0,0.7,0.5,1.2,1.2,1.2  c0.7,0,1.2-0.5,1.2-1.2v-1.6H31v1.6c0,0.7,0.5,1.2,1.2,1.2s1.2-0.5,1.2-1.2v-6h3.8c0,0,0.1,0,0.1,0v13c0,2.2,1.5,4.1,3.5,4.6v5.9  c0,2.2,1.8,4.1,4,4.1H50c2.2,0,4-1.8,4-4.1v-5.7h24.4c2.6,0,4.8-2.2,4.8-4.8V33.2C83.2,30.6,81.1,28.4,78.4,28.4z M44.9,21.1H50  c0.9,0,1.6,0.7,1.6,1.6v5.7h-8.4v-5.7C43.3,21.8,44,21.1,44.9,21.1z M26.5,44.2v11.6h-2.9V44.2H26.5z M19.2,44.2h2.1v11.6h-2.1V44.2  z M28.9,55.8V44.2H31v11.6H28.9z M37.2,51.4h-3.8v-2.9h3.8c0.1,0,0.1,0,0.2,0v2.9C37.3,51.4,37.3,51.4,37.2,51.4z M39.8,66.9h7.3  c0.7,0,1.2-0.5,1.2-1.2c0-0.7-0.5-1.2-1.2-1.2h-7.3v-2.1h7.3c0.7,0,1.2-0.5,1.2-1.2c0-0.7-0.5-1.2-1.2-1.2h-7.3v-2.9h7.3  c0.7,0,1.2-0.5,1.2-1.2c0-0.7-0.5-1.2-1.2-1.2h-7.3v-3.6h7.3c0.7,0,1.2-0.5,1.2-1.2c0-0.7-0.5-1.2-1.2-1.2h-7.3v-3.6h7.3  c0.7,0,1.2-0.5,1.2-1.2c0-0.7-0.5-1.2-1.2-1.2h-7.3v-2.9h7.3c0.7,0,1.2-0.5,1.2-1.2c0-0.7-0.5-1.2-1.2-1.2h-7.3v-2.1h7.3  c0.7,0,1.2-0.5,1.2-1.2c0-0.7-0.5-1.2-1.2-1.2h-7.3c0.1-1.3,1.1-2.2,2.4-2.2h16.9v38.4H42.2C40.9,69.2,39.8,68.2,39.8,66.9z   M51.7,77.3c0,0.9-0.7,1.7-1.6,1.7h-5.1c-0.9,0-1.6-0.7-1.6-1.7v-5.7h8.4V77.3z M78.4,69.2H61.5V30.8h16.9c1.3,0,2.3,1,2.4,2.2h-7.3  c-0.7,0-1.2,0.5-1.2,1.2c0,0.7,0.5,1.2,1.2,1.2h7.3v2.1h-7.3c-0.7,0-1.2,0.5-1.2,1.2c0,0.7,0.5,1.2,1.2,1.2h7.3v2.9h-7.3  c-0.7,0-1.2,0.5-1.2,1.2c0,0.7,0.5,1.2,1.2,1.2h7.3v3.6h-7.3c-0.7,0-1.2,0.5-1.2,1.2c0,0.7,0.5,1.2,1.2,1.2h7.3v3.6h-7.3  c-0.7,0-1.2,0.5-1.2,1.2c0,0.7,0.5,1.2,1.2,1.2h7.3V60h-7.3c-0.7,0-1.2,0.5-1.2,1.2c0,0.7,0.5,1.2,1.2,1.2h7.3v2.1h-7.3  c-0.7,0-1.2,0.5-1.2,1.2c0,0.7,0.5,1.2,1.2,1.2h7.3C80.8,68.2,79.7,69.2,78.4,69.2z"/><text x="0" y="115" fill="#000000" font-size="5px" font-weight="bold" font-family="'Helvetica Neue', Helvetica, Arial-Unicode, Arial, Sans-serif">Created by Anton Gajdosik</text><text x="0" y="120" fill="#000000" font-size="5px" font-weight="bold" font-family="'Helvetica Neue', Helvetica, Arial-Unicode, Arial, Sans-serif">from the Noun Project</text></svg>