<svg xmlns="http://www.w3.org/2000/svg" xmlns:xlink="http://www.w3.org/1999/xlink" version="1.1" x="0px" y="0px" viewBox="0 0 120 150" style="enable-background:new 0 0 120 120;" xml:space="preserve"><path d="M8,73.4c0,1.1,0.9,2,2,2h5.1h10.1c0,0,0.1,0,0.1,0c0,0,0,0.1,0,0.1c0,5.7,4.6,10.3,10.3,10.3c5.7,0,10.3-4.6,10.3-10.3  c0-0.1,0-0.1,0-0.2c0.1,0,0.2,0,0.3,0h30.6c0,0,0,0.1,0,0.1c0,5.7,4.6,10.3,10.3,10.3c5.7,0,10.3-4.6,10.3-10.3c0,0,0-0.1,0-0.1h7.2  c0.1,0,0.1,0,0.2,0c0.1,0,0.1,0,0.2,0h5.1c1.1,0,2-0.9,2-2s-0.9-2-2-2h-3.2l1-7.6c1-7.9,0.2-16-2.4-23.5c-1.2-3.7-4.7-6.1-8.5-6.1  H74.2H45.7H23.1c-5.5,0-10,4.5-10,10v27.2H10C8.9,71.4,8,72.3,8,73.4z M103.4,48.9h-4.6V38.6c1.3,0.6,2.3,1.6,2.7,3  C102.3,44,102.9,46.4,103.4,48.9z M80.7,75.5c0,0,0-0.1,0-0.1c0-1.5,0.6-2.9,1.6-4c1.1-1.3,2.8-2.1,4.7-2.1c1.9,0,3.5,0.8,4.7,2.1  c0.9,1.1,1.5,2.5,1.6,4c0,0,0,0.1,0,0.1c0,3.5-2.8,6.3-6.3,6.3C83.6,81.8,80.7,79,80.7,75.5z M74.2,52.9h29.7  c0.3,3.5,0.3,7-0.2,10.4l-1,8.1h-6.3c-1.6-3.6-5.2-6.1-9.4-6.1c-4.2,0-7.8,2.5-9.4,6.1h-3.4V52.9z M74.2,38.2h20.6v10.7H74.2V38.2z   M45.7,48.9H25.1V38.2h20.6V48.9z M70.2,48.9H49.7V38.2h20.6V48.9z M29.3,75.5c0-1.9,0.9-3.7,2.3-4.8h8c1.4,1.1,2.3,2.9,2.3,4.8  c0,3.5-2.8,6.3-6.3,6.3S29.3,79,29.3,75.5z M17.1,52.9h28.6h24.6v18.5h-23l-2.1-3.7c-0.4-0.6-1-1-1.7-1h-2.6H30.3h-2.4  c-0.7,0-1.4,0.4-1.7,1l-2.1,3.7h-6.9V52.9z M17.1,44.2c0-2.6,1.7-4.8,4-5.6v10.3h-4V44.2z"/><text x="0" y="135" fill="#000000" font-size="5px" font-weight="bold" font-family="'Helvetica Neue', Helvetica, Arial-Unicode, Arial, Sans-serif">Created by Symbolon</text><text x="0" y="140" fill="#000000" font-size="5px" font-weight="bold" font-family="'Helvetica Neue', Helvetica, Arial-Unicode, Arial, Sans-serif">from the Noun Project</text></svg>