<svg xmlns="http://www.w3.org/2000/svg" xmlns:xlink="http://www.w3.org/1999/xlink" version="1.1" x="0px" y="0px" viewBox="0 0 100 125" style="enable-background:new 0 0 100 100;" xml:space="preserve"><g><path d="M95,23.2h-9.5v-6c0-0.8-0.7-1.5-1.5-1.5H70.7c-0.8,0-1.5,0.7-1.5,1.5v6H30.8v-6c0-0.8-0.7-1.5-1.5-1.5H16   c-0.8,0-1.5,0.7-1.5,1.5v6H5c-0.8,0-1.5,0.7-1.5,1.5v10.5c0,0.8,0.7,1.5,1.5,1.5h4.5v46.1c0,0.8,0.7,1.5,1.5,1.5H89   c0.8,0,1.5-0.7,1.5-1.5V36.7H95c0.8,0,1.5-0.7,1.5-1.5V24.7C96.5,23.9,95.8,23.2,95,23.2z M72.2,18.7h10.3v4.5H72.2V18.7z    M17.5,18.7h10.3v4.5H17.5V18.7z M87.5,81.3H12.5V36.7h74.9V81.3z M93.5,33.7h-87v-7.5h87V33.7z"/><path d="M60.3,60.5h12.4c0.8,0,1.5-0.7,1.5-1.5s-0.7-1.5-1.5-1.5H60.3c-0.8,0-1.5,0.7-1.5,1.5S59.5,60.5,60.3,60.5z"/><path d="M66.5,72.6c7.5,0,13.6-6.1,13.6-13.6S74,45.4,66.5,45.4S52.9,51.5,52.9,59S59,72.6,66.5,72.6z M66.5,48.4   c5.9,0,10.6,4.8,10.6,10.6s-4.8,10.6-10.6,10.6S55.9,64.9,55.9,59S60.6,48.4,66.5,48.4z"/><path d="M27.3,60.5H32v4.7c0,0.8,0.7,1.5,1.5,1.5S35,66,35,65.2v-4.7h4.7c0.8,0,1.5-0.7,1.5-1.5s-0.7-1.5-1.5-1.5H35v-4.7   c0-0.8-0.7-1.5-1.5-1.5S32,52,32,52.8v4.7h-4.7c-0.8,0-1.5,0.7-1.5,1.5S26.5,60.5,27.3,60.5z"/><path d="M33.5,72.6c7.5,0,13.6-6.1,13.6-13.6S41,45.4,33.5,45.4S19.9,51.5,19.9,59S26,72.6,33.5,72.6z M33.5,48.4   c5.9,0,10.6,4.8,10.6,10.6s-4.8,10.6-10.6,10.6S22.9,64.9,22.9,59S27.6,48.4,33.5,48.4z"/></g><text x="0" y="115" fill="#000000" font-size="5px" font-weight="bold" font-family="'Helvetica Neue', Helvetica, Arial-Unicode, Arial, Sans-serif">Created by Justin Blake</text><text x="0" y="120" fill="#000000" font-size="5px" font-weight="bold" font-family="'Helvetica Neue', Helvetica, Arial-Unicode, Arial, Sans-serif">from the Noun Project</text></svg>